HIERARCHY
ROOT Hips
{
  OFFSET 0.000000 0.000000 0.000000
  CHANNELS 6 Xposition Yposition Zposition Zrotation Yrotation Xrotation
  JOINT Spine
  {
    OFFSET 0.012494 2.142519 0.038421
    CHANNELS 3 Zrotation Yrotation Xrotation
    JOINT Spine1
    {
      OFFSET -0.029567 2.141989 -0.037509
      CHANNELS 3 Zrotation Yrotation Xrotation
      JOINT Spine2
      {
        OFFSET -0.033793 2.137338 -0.054507
        CHANNELS 3 Zrotation Yrotation Xrotation
        JOINT Neck
        {
          OFFSET -0.016776 1.657090 -0.054760
          CHANNELS 3 Zrotation Yrotation Xrotation
          JOINT Head
          {
            OFFSET 0.032982 1.739403 -0.042712
            CHANNELS 3 Zrotation Yrotation Xrotation
            End Site
            {
              OFFSET 0 0 0
            }
          }
        }
        JOINT LeftShoulder
        {
          OFFSET 3.395560 1.164964 0.086733
          CHANNELS 3 Zrotation Yrotation Xrotation
          JOINT LeftArm
          {
            OFFSET 5.239100 -0.000000 -0.000000
            CHANNELS 3 Zrotation Yrotation Xrotation
            JOINT LeftForeArm
            {
              OFFSET 3.314670 -0.000000 0.000000
              CHANNELS 3 Zrotation Yrotation Xrotation
              JOINT LeftHand
              {
                OFFSET 0.965900 -0.000000 0.000000
                CHANNELS 3 Zrotation Yrotation Xrotation
                JOINT LeftHandIndex1
                {
                  OFFSET 0.778733 -0.000000 0.000000
                  CHANNELS 3 Zrotation Yrotation Xrotation
                  End Site
                  {
                    OFFSET 0 0 0
                  }
                }
              }
            }
          }
        }
        JOINT RightShoulder
        {
          OFFSET -3.271928 1.313306 0.339403
          CHANNELS 3 Zrotation Yrotation Xrotation
          JOINT RightArm
          {
            OFFSET -5.302520 -0.000000 0.000000
            CHANNELS 3 Zrotation Yrotation Xrotation
            JOINT RightForeArm
            {
              OFFSET -3.678750 -0.000000 0.000000
              CHANNELS 3 Zrotation Yrotation Xrotation
              JOINT RightHand
              {
                OFFSET -0.594811 -0.000000 0.000000
                CHANNELS 3 Zrotation Yrotation Xrotation
                JOINT RightHandIndex1
                {
                  OFFSET -0.479552 -0.000000 0.000000
                  CHANNELS 3 Zrotation Yrotation Xrotation
                  End Site
                  {
                    OFFSET 0 0 0
                  }
                }
              }
            }
          }
        }
      }
    }
  }
  JOINT LeftUpLeg
  {
    OFFSET 2.478462 -6.809523 0.000000
    CHANNELS 3 Zrotation Yrotation Xrotation
    JOINT LeftLeg
    {
      OFFSET 2.752745 -7.563110 0.000000
      CHANNELS 3 Zrotation Yrotation Xrotation
      JOINT LeftFoot
      {
        OFFSET 0.128484 -0.353008 1.682235
        CHANNELS 3 Zrotation Yrotation Xrotation
        JOINT LeftToeBase
        {
          OFFSET 0.000000 -0.000000 0.873110
          CHANNELS 3 Zrotation Yrotation Xrotation
          End Site
          {
            OFFSET 0 0 0
          }
        }
      }
    }
  }
  JOINT RightUpLeg
  {
    OFFSET -2.447396 -6.724171 0.000000
    CHANNELS 3 Zrotation Yrotation Xrotation
    JOINT RightLeg
    {
      OFFSET -2.673430 -7.345195 0.000000
      CHANNELS 3 Zrotation Yrotation Xrotation
      JOINT RightFoot
      {
        OFFSET -0.169142 -0.464715 1.776261
        CHANNELS 3 Zrotation Yrotation Xrotation
        JOINT RightToeBase
        {
          OFFSET -0.000000 -0.000000 0.927771
          CHANNELS 3 Zrotation Yrotation Xrotation
          End Site
          {
            OFFSET 0 0 0
          }
        }
      }
    }
  }
}
MOTION
Frames: 13
Frame Time: 0.00833333
7.144810 16.415300 -18.609500 -338.528000 67.044600 -332.540000 4.935640 -2.361230 -22.623800 0.000000 0.000000 64.463600 2.150280 0.000000 23.816100 0.000000 0.000000 12.713800 28.592300 -8.113860 -32.355200 0.000000 0.000000 51.945200 -21.872500 0.000000 -44.539700 0.000000 0.000000 20.286800 -5.341000 -4.030060 5.330360 -0.610908 -5.641230 1.182660 2.684020 -2.791670 -1.303910 -9.542990 -14.390700 3.747690 7.312910 -9.803730 0.160047 -0.000000 -0.000000 0.000000 98.523400 -49.616800 -70.720200 0.000000 0.000000 28.652200 -17.886900 0.000000 -12.825300 0.000000 0.000000 7.125020 -0.000000 -0.000000 0.000000 -64.942700 13.659000 -24.884800 0.000000 0.000000 88.341900 -32.232900 0.000000 -13.726600 0.000000 0.000000 7.125020
7.180270 16.451000 -18.452600 -340.186000 65.967200 -334.571000 4.800290 -3.542570 -24.178900 0.000000 0.000000 67.744400 0.253756 0.000000 27.332300 0.000000 0.000000 19.612400 29.183900 -7.738300 -30.699700 0.000000 0.000000 50.906300 -20.670500 0.000000 -44.002700 0.000000 0.000000 21.284200 -5.009990 -4.230730 5.595850 -0.403042 -5.903640 1.186840 2.749900 -2.920890 -1.436960 -10.089800 -14.044600 3.584330 7.377650 -9.589390 0.391426 0.000000 -0.000000 0.000000 98.110300 -49.368400 -71.369200 0.000000 0.000000 27.385700 -14.708000 0.000000 -9.418190 0.000000 0.000000 7.125020 0.000000 -0.000000 0.000000 -61.765300 15.749300 -21.445400 0.000000 0.000000 91.531100 -32.678900 0.000000 -14.548800 0.000000 0.000000 7.125020
7.210850 16.496900 -18.293600 -341.813000 64.420500 -336.424000 4.442680 -4.088110 -25.658800 0.000000 0.000000 71.111900 0.100966 0.000000 29.094700 0.000000 0.000000 25.739300 29.628400 -6.710400 -29.060900 0.000000 0.000000 49.769700 -19.127400 0.000000 -43.719700 0.000000 0.000000 23.513000 -4.700310 -4.133730 5.741280 -0.427628 -5.767610 1.155110 2.562670 -2.849660 -1.595270 -9.893860 -13.881000 3.384140 7.244500 -9.477220 0.538502 0.000000 0.000000 0.000000 97.581800 -49.791200 -72.160000 0.000000 0.000000 26.250000 -11.056400 0.000000 -5.708530 0.000000 0.000000 7.125020 0.000000 0.000000 0.000000 -58.698700 16.665900 -18.228500 0.000000 0.000000 94.190000 -32.099700 0.000000 -15.244700 0.000000 0.000000 7.125020
7.239030 16.545700 -18.110700 -343.386000 62.429800 -338.152000 3.977030 -4.006240 -26.921400 0.000000 0.000000 74.399800 -0.636763 0.000000 29.424800 0.000000 0.000000 23.271400 30.072900 -5.918600 -27.486700 0.000000 0.000000 48.492400 -17.706500 0.000000 -42.894800 0.000000 0.000000 24.930900 -4.822520 -3.951120 5.701500 -0.353220 -5.530980 1.121800 2.691700 -2.731190 -1.606650 -9.649550 -13.713400 3.057090 7.007830 -9.351770 0.694434 -0.000000 0.000000 0.000000 96.022000 -49.618600 -71.988100 0.000000 0.000000 24.861000 -8.412590 0.000000 -1.989670 0.000000 0.000000 7.125020 -0.000000 0.000000 0.000000 -55.702400 17.464400 -14.915700 0.000000 0.000000 96.433900 -31.352400 0.000000 -16.209900 0.000000 0.000000 7.125020
7.280520 16.615000 -17.920100 -344.816000 60.713100 -339.926000 3.524660 -4.305190 -27.910300 0.000000 0.000000 77.370500 -1.007970 0.000000 29.405400 0.000000 0.000000 21.974100 30.603000 -5.333210 -25.171200 0.000000 0.000000 46.568000 -16.504200 0.000000 -41.925900 0.000000 0.000000 26.337700 -4.796050 -3.870490 5.726840 -0.215052 -5.419340 1.185630 2.811590 -2.678690 -1.552660 -9.435130 -13.525000 2.583320 6.736940 -9.203720 0.891822 -0.000000 -0.000000 0.000000 93.525600 -49.065500 -70.959900 0.000000 0.000000 23.384800 -6.345660 0.000000 1.688570 0.000000 0.000000 7.125020 -0.000000 -0.000000 0.000000 -52.375600 18.501700 -11.038500 0.000000 0.000000 98.017300 -30.874300 0.000000 -17.442800 0.000000 0.000000 7.125020
7.331380 16.703200 -17.728300 -345.649000 59.378800 -341.244000 2.886370 -5.262200 -28.900600 0.000000 0.000000 79.980500 -1.626530 0.000000 29.436600 0.000000 0.000000 21.926100 30.883500 -5.092920 -22.427500 0.000000 0.000000 44.122000 -15.297200 0.000000 -40.797300 0.000000 0.000000 27.913900 -4.796420 -3.899990 5.809910 -0.088123 -5.457620 1.274700 2.946060 -2.701160 -1.491130 -9.302100 -13.286700 2.108130 6.513450 -9.023310 1.096020 -0.000000 -0.000000 0.000000 90.555400 -48.354100 -69.516100 0.000000 0.000000 21.826800 -4.806070 0.000000 4.827600 0.000000 0.000000 7.125020 -0.000000 -0.000000 0.000000 -48.543400 19.718300 -7.048640 0.000000 0.000000 99.587700 -31.071100 0.000000 -18.557700 0.000000 0.000000 7.125020
7.385780 16.795300 -17.532500 -346.334000 58.198700 -342.147000 2.274670 -6.369680 -30.320800 0.000000 0.000000 82.396900 -1.379950 0.000000 27.002100 0.000000 0.000000 19.047100 31.145400 -4.959230 -19.937100 0.000000 0.000000 41.545300 -14.173600 0.000000 -39.456800 0.000000 0.000000 29.374400 -4.765360 -3.989690 5.526060 0.054873 -5.557630 1.311890 3.055220 -2.758850 -1.274950 -9.249720 -13.019300 1.738630 6.362100 -8.831290 1.281310 -0.000000 0.000000 0.000000 87.765700 -47.683100 -68.250400 0.000000 0.000000 20.351900 -1.777200 0.000000 7.001630 0.000000 0.000000 7.125020 -0.000000 0.000000 0.000000 -44.529900 20.744100 -3.140150 0.000000 0.000000 101.152000 -31.187800 0.000000 -18.998100 0.000000 0.000000 7.125020
7.444350 16.901000 -17.373600 -347.431000 56.368400 -343.283000 1.448260 -6.998930 -31.779400 0.000000 0.000000 84.803200 -1.197920 0.000000 24.008600 0.000000 0.000000 14.087000 31.277200 -4.658940 -17.848200 0.000000 0.000000 39.393600 -12.529100 0.000000 -37.635800 0.000000 0.000000 30.799300 -4.201510 -3.864980 5.327860 0.121809 -5.352720 1.287270 2.789100 -2.658830 -1.253530 -8.936720 -12.828700 1.238020 6.042840 -8.676730 1.444620 0.000000 -0.000000 0.000000 85.453900 -47.149200 -67.434400 0.000000 0.000000 19.189200 -0.354517 0.000000 7.662090 0.000000 0.000000 7.125020 0.000000 -0.000000 0.000000 -40.395300 21.487400 0.917516 0.000000 0.000000 102.292000 -30.177000 0.000000 -19.099400 0.000000 0.000000 7.125020
7.498560 17.008100 -17.201800 -348.386000 54.171300 -344.157000 0.566914 -7.283400 -33.207800 0.000000 0.000000 86.979900 -0.910157 0.000000 20.954700 0.000000 0.000000 10.538500 31.332100 -4.117370 -15.992000 0.000000 0.000000 37.526500 -10.972300 0.000000 -35.614400 0.000000 0.000000 29.952200 -3.716340 -3.662400 5.020820 0.064257 -5.050920 1.177020 2.430250 -2.508350 -1.267280 -8.466350 -12.560100 0.862717 5.698220 -8.477890 1.565310 -0.000000 -0.000000 0.000000 83.811500 -46.861000 -67.498900 0.000000 0.000000 18.246200 0.585536 0.000000 7.626820 0.000000 0.000000 7.125020 -0.000000 -0.000000 0.000000 -36.624300 22.255200 4.928400 0.000000 0.000000 103.054000 -29.743000 0.000000 -19.421400 0.000000 0.000000 7.125020
7.562390 17.118500 -17.060200 -349.274000 51.586400 -344.712000 -0.500209 -7.390970 -34.971800 0.000000 0.000000 89.147100 -0.119678 0.000000 18.617500 0.000000 0.000000 13.703900 31.178700 -3.887310 -14.744900 0.000000 0.000000 36.365700 -9.658310 0.000000 -33.268100 0.000000 0.000000 24.537200 -2.916370 -3.437960 4.813100 -0.025213 -4.717130 0.841593 1.880840 -2.335930 -1.592150 -8.266320 -12.131000 0.447475 5.428310 -8.177040 1.764810 0.000000 0.000000 0.000000 83.124800 -46.545100 -68.571100 0.000000 0.000000 17.569500 1.114760 0.000000 7.136040 0.000000 0.000000 7.125020 0.000000 0.000000 0.000000 -32.852500 23.190500 9.533190 0.000000 0.000000 103.147000 -30.077600 0.000000 -19.647800 0.000000 0.000000 7.125020
7.639900 17.215200 -17.026900 -350.735000 46.311700 -344.600000 -2.236880 -4.983940 -37.687000 0.000000 0.000000 91.860800 0.783843 0.000000 16.925600 0.000000 0.000000 20.641400 30.395300 -1.972260 -15.824000 0.000000 0.000000 36.604500 -6.165800 0.000000 -30.033200 0.000000 0.000000 24.002100 -1.646390 -2.331120 4.133140 -0.090251 -3.182450 0.161267 1.012420 -1.570660 -2.064030 -8.340260 -11.738500 -0.274876 5.123860 -7.883660 2.042550 -0.000000 0.000000 0.000000 82.943300 -46.074600 -69.674800 0.000000 0.000000 17.076200 1.117500 0.000000 6.359290 0.000000 0.000000 7.125020 -0.000000 0.000000 0.000000 -28.374800 23.712900 14.935000 0.000000 0.000000 102.694000 -29.308500 0.000000 -19.682700 0.000000 0.000000 7.125020
7.710880 17.346700 -16.853200 -351.465000 43.451100 -345.134000 -3.193620 -5.112880 -38.957300 0.000000 0.000000 93.224800 1.147990 0.000000 15.017300 0.000000 0.000000 22.674600 30.108800 -1.394440 -14.197600 0.000000 0.000000 34.888900 -4.242480 0.000000 -27.023100 0.000000 0.000000 24.688800 -1.176450 -1.944710 3.641980 -0.080545 -2.638420 0.242318 0.709047 -1.306940 -1.741700 -8.096430 -11.432200 -0.979212 4.792930 -7.645940 2.261200 0.000000 -0.000000 0.000000 82.954200 -46.084400 -71.026400 0.000000 0.000000 16.680600 0.548989 0.000000 5.133220 0.000000 0.000000 7.125020 0.000000 -0.000000 0.000000 -24.405900 23.730500 19.773800 0.000000 0.000000 102.476000 -28.672400 0.000000 -19.435700 0.000000 0.000000 7.125020
7.783020 17.486700 -16.673200 -352.360000 40.465100 -345.840000 -3.912460 -5.207280 -40.009200 0.000000 0.000000 94.264500 1.477470 0.000000 13.093500 0.000000 0.000000 22.798700 29.973100 -1.009630 -12.580500 0.000000 0.000000 33.450800 -2.585230 0.000000 -23.954700 0.000000 0.000000 23.551500 -0.581820 -1.439720 3.253570 -0.092811 -1.938900 0.307071 0.317471 -0.963814 -1.491740 -7.519930 -11.161100 -1.173150 4.427080 -7.454330 2.246460 -0.000000 0.000000 0.000000 82.608700 -46.050200 -72.197400 0.000000 0.000000 16.334800 -0.156633 0.000000 3.791760 0.000000 0.000000 7.125020 -0.000000 0.000000 0.000000 -20.724100 23.623100 23.761000 0.000000 0.000000 102.541000 -28.121100 0.000000 -19.140000 0.000000 0.000000 7.125020
